<svg width="44" height="8" viewBox="0 0 44 8" fill="none" xmlns="http://www.w3.org/2000/svg">
<path fill-rule="evenodd" clip-rule="evenodd" d="M6.37364 0.380528C5.22214 2.29578 3.13071 4.55178 1.15671 6.03228C-1.04054 7.67728 1.16844 8.02978 3.89444 7.74778C5.75094 7.55978 7.99524 7.59503 10.7565 7.88878C11.532 7.97103 11.5672 7.77128 10.968 6.89003C9.47571 4.71628 9.47564 4.92778 10.9561 4.82203C12.2133 4.72803 14.7161 4.97478 19.4161 5.65628C20.9788 5.87953 26.0315 6.56103 27.1947 6.71378C32.5762 7.45403 38.3455 6.67853 42.1642 4.69278C45.1487 3.14178 43.4685 1.82578 41.0127 3.04778C38.04 4.54003 34.1625 5.35078 30.003 5.35078C28.4285 5.35078 27.0302 5.18628 19.3105 4.11703C11.2147 2.98903 11.1676 3.11828 8.95864 3.25928C8.75889 2.84803 7.95999 1.13253 7.81899 0.780028C7.53699 0.039778 6.71439 -0.183472 6.37364 0.380528Z" fill="#2D3E4C"/>
</svg>
